<svg xmlns="http://www.w3.org/2000/svg" xmlns:xlink="http://www.w3.org/1999/xlink" width="500" zoomAndPan="magnify" viewBox="0 0 375 374.999991" height="500" preserveAspectRatio="xMidYMid meet" version="1.0"><defs><clipPath id="aa6244d2c0"><path d="M 51.714844 51.714844 L 323.214844 51.714844 L 323.214844 323.214844 L 51.714844 323.214844 Z M 51.714844 51.714844 " clip-rule="nonzero"/></clipPath></defs><g clip-path="url(#aa6244d2c0)"><path fill="#13b886" d="M 45.15625 26.554688 C 34.929688 26.554688 26.589844 34.894531 26.589844 45.125 L 26.589844 329.839844 C 26.589844 340.070312 34.929688 348.410156 45.15625 348.410156 L 329.875 348.410156 C 340.101562 348.410156 348.445312 340.070312 348.445312 329.839844 L 348.445312 45.125 C 348.445312 34.894531 340.101562 26.554688 329.875 26.554688 Z M 45.15625 38.933594 L 329.875 38.933594 C 333.285156 38.933594 336.066406 41.714844 336.066406 45.125 L 336.066406 329.839844 C 336.066406 333.25 333.285156 336.03125 329.875 336.03125 L 45.15625 336.03125 C 41.746094 336.03125 38.96875 333.25 38.96875 329.839844 L 38.96875 45.125 C 38.96875 41.714844 41.746094 38.933594 45.15625 38.933594 Z M 76.105469 63.691406 C 69.285156 63.691406 63.726562 69.253906 63.726562 76.070312 L 63.726562 125.585938 C 63.726562 132.40625 69.285156 137.964844 76.105469 137.964844 L 125.621094 137.964844 C 132.4375 137.964844 138 132.40625 138 125.585938 L 138 76.070312 C 138 69.253906 132.4375 63.691406 125.621094 63.691406 Z M 156.570312 63.691406 C 153.136719 63.691406 150.378906 66.472656 150.378906 69.882812 L 150.378906 94.640625 C 150.378906 98.046875 153.136719 100.828125 156.570312 100.828125 L 175.136719 100.828125 L 175.136719 119.398438 C 175.136719 122.808594 177.894531 125.585938 181.328125 125.585938 C 184.761719 125.585938 187.515625 122.808594 187.515625 119.398438 L 187.515625 100.828125 L 212.273438 100.828125 L 212.273438 125.585938 L 193.707031 125.585938 C 190.273438 125.585938 187.515625 128.367188 187.515625 131.777344 L 187.515625 150.34375 L 156.570312 150.34375 C 153.136719 150.34375 150.378906 153.125 150.378906 156.535156 L 150.378906 187.484375 L 138 187.484375 L 138 168.914062 C 138 165.503906 135.242188 162.722656 131.808594 162.722656 L 107.050781 162.722656 C 103.617188 162.722656 100.863281 165.503906 100.863281 168.914062 L 100.863281 193.671875 C 100.863281 197.082031 103.617188 199.863281 107.050781 199.863281 L 150.378906 199.863281 L 150.378906 218.429688 C 150.378906 221.839844 153.136719 224.621094 156.570312 224.621094 L 187.515625 224.621094 L 187.515625 237 L 168.949219 237 C 165.515625 237 162.757812 239.777344 162.757812 243.1875 L 162.757812 267.945312 C 162.757812 271.355469 165.515625 274.136719 168.949219 274.136719 L 193.707031 274.136719 C 197.140625 274.136719 199.894531 271.355469 199.894531 267.945312 L 199.894531 218.429688 C 199.894531 215.019531 197.140625 212.242188 193.707031 212.242188 L 162.757812 212.242188 L 162.757812 199.863281 L 212.273438 199.863281 L 212.273438 267.945312 C 212.273438 271.355469 215.03125 274.136719 218.464844 274.136719 L 243.222656 274.136719 C 246.65625 274.136719 249.410156 271.355469 249.410156 267.945312 L 249.410156 249.378906 L 274.167969 249.378906 L 274.167969 305.082031 C 274.167969 308.492188 276.925781 311.273438 280.359375 311.273438 L 305.117188 311.273438 C 308.550781 311.273438 311.308594 308.492188 311.308594 305.082031 L 311.308594 280.324219 C 311.308594 276.917969 308.550781 274.136719 305.117188 274.136719 L 286.546875 274.136719 L 286.546875 243.1875 C 286.546875 239.777344 283.792969 237 280.359375 237 L 249.410156 237 L 249.410156 224.621094 L 305.117188 224.621094 C 308.550781 224.621094 311.308594 221.839844 311.308594 218.429688 L 311.308594 156.535156 C 311.308594 153.125 308.550781 150.34375 305.117188 150.34375 L 267.980469 150.34375 C 264.546875 150.34375 261.789062 153.125 261.789062 156.535156 C 261.789062 159.945312 264.546875 162.722656 267.980469 162.722656 L 298.925781 162.722656 L 298.925781 187.484375 L 280.359375 187.484375 C 276.925781 187.484375 274.167969 190.261719 274.167969 193.671875 L 274.167969 212.242188 L 243.222656 212.242188 C 239.789062 212.242188 237.03125 215.019531 237.03125 218.429688 L 237.03125 237 L 224.652344 237 L 224.652344 199.863281 L 243.222656 199.863281 C 246.65625 199.863281 249.410156 197.082031 249.410156 193.671875 L 249.410156 168.914062 C 249.410156 165.503906 246.65625 162.722656 243.222656 162.722656 L 218.464844 162.722656 C 215.03125 162.722656 212.273438 165.503906 212.273438 168.914062 L 212.273438 187.484375 L 162.757812 187.484375 L 162.757812 162.722656 L 193.707031 162.722656 C 197.140625 162.722656 199.894531 159.945312 199.894531 156.535156 L 199.894531 137.964844 L 218.464844 137.964844 C 221.898438 137.964844 224.652344 135.1875 224.652344 131.777344 L 224.652344 94.640625 C 224.652344 91.230469 221.898438 88.449219 218.464844 88.449219 L 187.515625 88.449219 L 187.515625 69.882812 C 187.515625 66.472656 184.761719 63.691406 181.328125 63.691406 Z M 206.085938 63.691406 C 202.652344 63.691406 199.894531 66.472656 199.894531 69.882812 C 199.894531 73.289062 202.652344 76.070312 206.085938 76.070312 L 218.464844 76.070312 C 221.898438 76.070312 224.652344 73.289062 224.652344 69.882812 C 224.652344 66.472656 221.898438 63.691406 218.464844 63.691406 Z M 249.410156 63.691406 C 242.59375 63.691406 237.03125 69.253906 237.03125 76.070312 L 237.03125 125.585938 C 237.03125 132.40625 242.59375 137.964844 249.410156 137.964844 L 298.925781 137.964844 C 305.746094 137.964844 311.308594 132.40625 311.308594 125.585938 L 311.308594 76.070312 C 311.308594 69.253906 305.746094 63.691406 298.925781 63.691406 Z M 76.105469 76.070312 L 125.621094 76.070312 L 125.621094 125.585938 L 76.105469 125.585938 Z M 162.757812 76.070312 L 175.136719 76.070312 L 175.136719 88.449219 L 162.757812 88.449219 Z M 249.410156 76.070312 L 298.925781 76.070312 L 298.925781 125.585938 L 249.410156 125.585938 Z M 94.671875 88.449219 C 91.238281 88.449219 88.484375 91.230469 88.484375 94.640625 L 88.484375 107.019531 C 88.484375 110.429688 91.238281 113.207031 94.671875 113.207031 L 107.050781 113.207031 C 110.484375 113.207031 113.242188 110.429688 113.242188 107.019531 L 113.242188 94.640625 C 113.242188 91.230469 110.484375 88.449219 107.050781 88.449219 Z M 267.980469 88.449219 C 264.546875 88.449219 261.789062 91.230469 261.789062 94.640625 L 261.789062 107.019531 C 261.789062 110.429688 264.546875 113.207031 267.980469 113.207031 L 280.359375 113.207031 C 283.792969 113.207031 286.546875 110.429688 286.546875 107.019531 L 286.546875 94.640625 C 286.546875 91.230469 283.792969 88.449219 280.359375 88.449219 Z M 156.570312 113.207031 C 153.136719 113.207031 150.378906 115.988281 150.378906 119.398438 L 150.378906 131.777344 C 150.378906 135.1875 153.136719 137.964844 156.570312 137.964844 C 160 137.964844 162.757812 135.1875 162.757812 131.777344 L 162.757812 119.398438 C 162.757812 115.988281 160 113.207031 156.570312 113.207031 Z M 69.914062 150.34375 C 66.480469 150.34375 63.726562 153.125 63.726562 156.535156 C 63.726562 159.945312 66.480469 162.722656 69.914062 162.722656 L 82.292969 162.722656 C 85.726562 162.722656 88.484375 159.945312 88.484375 156.535156 C 88.484375 153.125 85.726562 150.34375 82.292969 150.34375 Z M 113.242188 175.101562 L 125.621094 175.101562 L 125.621094 187.484375 L 113.242188 187.484375 Z M 224.652344 175.101562 L 237.03125 175.101562 L 237.03125 187.484375 L 224.652344 187.484375 Z M 69.914062 181.292969 C 66.480469 181.292969 63.726562 184.074219 63.726562 187.484375 C 63.726562 190.890625 66.480469 193.671875 69.914062 193.671875 L 82.292969 193.671875 C 85.726562 193.671875 88.484375 190.890625 88.484375 187.484375 C 88.484375 184.074219 85.726562 181.292969 82.292969 181.292969 Z M 286.546875 199.863281 L 298.925781 199.863281 L 298.925781 212.242188 L 286.546875 212.242188 Z M 69.914062 212.242188 C 66.480469 212.242188 63.726562 215.019531 63.726562 218.429688 C 63.726562 221.839844 66.480469 224.621094 69.914062 224.621094 L 82.292969 224.621094 C 85.726562 224.621094 88.484375 221.839844 88.484375 218.429688 C 88.484375 215.019531 85.726562 212.242188 82.292969 212.242188 Z M 107.050781 212.242188 C 103.617188 212.242188 100.863281 215.019531 100.863281 218.429688 C 100.863281 221.839844 103.617188 224.621094 107.050781 224.621094 L 131.808594 224.621094 C 135.242188 224.621094 138 221.839844 138 218.429688 C 138 215.019531 135.242188 212.242188 131.808594 212.242188 Z M 76.105469 237 C 69.285156 237 63.726562 242.558594 63.726562 249.378906 L 63.726562 298.894531 C 63.726562 305.710938 69.285156 311.273438 76.105469 311.273438 L 125.621094 311.273438 C 132.4375 311.273438 138 305.710938 138 298.894531 L 138 249.378906 C 138 242.558594 132.4375 237 125.621094 237 Z M 305.117188 237 C 301.683594 237 298.925781 239.777344 298.925781 243.1875 L 298.925781 255.566406 C 298.925781 258.976562 301.683594 261.757812 305.117188 261.757812 C 308.550781 261.757812 311.308594 258.976562 311.308594 255.566406 L 311.308594 243.1875 C 311.308594 239.777344 308.550781 237 305.117188 237 Z M 76.105469 249.378906 L 125.621094 249.378906 L 125.621094 298.894531 L 76.105469 298.894531 Z M 175.136719 249.378906 L 187.515625 249.378906 L 187.515625 261.757812 L 175.136719 261.757812 Z M 224.652344 249.378906 L 237.03125 249.378906 L 237.03125 261.757812 L 224.652344 261.757812 Z M 94.671875 261.757812 C 91.238281 261.757812 88.484375 264.539062 88.484375 267.945312 L 88.484375 280.324219 C 88.484375 283.734375 91.238281 286.515625 94.671875 286.515625 L 107.050781 286.515625 C 110.484375 286.515625 113.242188 283.734375 113.242188 280.324219 L 113.242188 267.945312 C 113.242188 264.539062 110.484375 261.757812 107.050781 261.757812 Z M 156.570312 286.515625 C 153.136719 286.515625 150.378906 289.296875 150.378906 292.703125 L 150.378906 305.082031 C 150.378906 308.492188 153.136719 311.273438 156.570312 311.273438 C 160 311.273438 162.757812 308.492188 162.757812 305.082031 L 162.757812 292.703125 C 162.757812 289.296875 160 286.515625 156.570312 286.515625 Z M 187.515625 286.515625 C 184.082031 286.515625 181.328125 289.296875 181.328125 292.703125 L 181.328125 305.082031 C 181.328125 308.492188 184.082031 311.273438 187.515625 311.273438 C 190.949219 311.273438 193.707031 308.492188 193.707031 305.082031 L 193.707031 292.703125 C 193.707031 289.296875 190.949219 286.515625 187.515625 286.515625 Z M 218.464844 286.515625 C 215.03125 286.515625 212.273438 289.296875 212.273438 292.703125 L 212.273438 305.082031 C 212.273438 308.492188 215.03125 311.273438 218.464844 311.273438 C 221.898438 311.273438 224.652344 308.492188 224.652344 305.082031 L 224.652344 292.703125 C 224.652344 289.296875 221.898438 286.515625 218.464844 286.515625 Z M 249.410156 286.515625 C 245.976562 286.515625 243.222656 289.296875 243.222656 292.703125 L 243.222656 305.082031 C 243.222656 308.492188 245.976562 311.273438 249.410156 311.273438 C 252.84375 311.273438 255.601562 308.492188 255.601562 305.082031 L 255.601562 292.703125 C 255.601562 289.296875 252.84375 286.515625 249.410156 286.515625 Z M 286.546875 286.515625 L 298.925781 286.515625 L 298.925781 298.894531 L 286.546875 298.894531 Z M 286.546875 286.515625 " fill-opacity="1" fill-rule="nonzero"/></g></svg>